<?xml version="1.0" standalone="no"?>
<!DOCTYPE svg PUBLIC "-//W3C//DTD SVG 20010904//EN"
 "http://www.w3.org/TR/2001/REC-SVG-20010904/DTD/svg10.dtd">
<svg version="1.0" xmlns="http://www.w3.org/2000/svg"
 width="2048.000000pt" height="2048.000000pt" viewBox="0 0 2048.000000 2048.000000"
 preserveAspectRatio="xMidYMid meet">
<metadata>
Created by potrace 1.11, written by Peter Selinger 2001-2013
</metadata>
<g transform="translate(0.000000,2048.000000) scale(0.100000,-0.100000)"
fill="#000000" stroke="none">
<path d="M14654 16574 c-384 -461 -704 -844 -710 -853 -10 -13 -31 -6 -160 61
-830 426 -1777 666 -2873 728 -236 13 -806 13 -1037 0 -1673 -95 -2999 -586
-4031 -1492 -134 -117 -407 -398 -524 -538 -717 -860 -1159 -1928 -1318 -3185
-50 -390 -55 -502 -56 -1080 0 -576 5 -679 50 -1090 119 -1067 426 -1989 912
-2734 61 -93 73 -119 65 -132 -6 -9 -358 -421 -782 -915 -424 -493 -767 -901
-763 -905 23 -22 1698 -1349 1703 -1349 4 1 1369 1670 1431 1752 l17 22 173
-82 c804 -375 1668 -586 2719 -662 440 -32 1110 -30 1528 5 1350 112 2480 509
3387 1190 369 277 713 617 997 985 620 805 1026 1846 1172 3005 50 399 60 576
61 1075 0 476 -7 624 -46 975 -119 1080 -432 1999 -943 2770 l-101 153 772
888 c583 671 769 891 759 899 -7 6 -389 309 -850 675 -460 366 -840 666 -845
668 -4 1 -322 -374 -707 -834z m-3897 -2838 c268 -40 478 -116 643 -234 93
-67 215 -194 288 -300 56 -81 62 -94 50 -111 -7 -10 -737 -946 -1623 -2080
l-1610 -2062 -7 53 c-11 89 -27 470 -40 946 -23 917 27 1638 152 2197 167 748
468 1217 930 1450 143 72 346 129 550 154 109 14 545 5 667 -13z m1362 -2381
c44 -791 40 -1451 -15 -2025 -129 -1363 -560 -2152 -1304 -2388 -212 -67 -369
-86 -659 -79 -490 11 -805 123 -1055 373 -89 89 -211 257 -202 279 11 29 3211
4054 3217 4047 3 -4 11 -97 18 -207z"/>
</g>
</svg>
